<svg width="14" height="18" viewBox="0 0 14 18" fill="none" xmlns="http://www.w3.org/2000/svg">
<path d="M7.625 0.628515V6.34375C7.625 6.38519 7.64146 6.42493 7.67076 6.45424C7.70007 6.48354 7.73981 6.5 7.78125 6.5H13.4965C13.5119 6.50001 13.527 6.49545 13.5399 6.48689C13.5527 6.47833 13.5627 6.46616 13.5687 6.45191C13.5746 6.43766 13.5762 6.42197 13.5732 6.40682C13.5702 6.39167 13.5628 6.37774 13.552 6.3668L7.7582 0.573047C7.74726 0.562164 7.73333 0.554768 7.71818 0.551793C7.70303 0.548818 7.68734 0.550397 7.67309 0.556332C7.65884 0.562266 7.64667 0.57229 7.63811 0.585137C7.62955 0.597984 7.62499 0.613078 7.625 0.628515Z" fillRule="#BD9A5F"/>
<path d="M6.6875 7.75C6.60462 7.75 6.52513 7.71708 6.46653 7.65847C6.40792 7.59987 6.375 7.52038 6.375 7.4375V0.25H0.59375C0.46943 0.25 0.350201 0.299386 0.262294 0.387294C0.174386 0.475201 0.125 0.59443 0.125 0.71875V17.2812C0.125 17.4056 0.174386 17.5248 0.262294 17.6127C0.350201 17.7006 0.46943 17.75 0.59375 17.75H13.4062C13.5306 17.75 13.6498 17.7006 13.7377 17.6127C13.8256 17.5248 13.875 17.4056 13.875 17.2812V7.75H6.6875ZM10.75 14H3.25V12.75H10.75V14ZM10.75 10.875H3.25V9.625H10.75V10.875Z" fillRule="#BD9A5F"/>
</svg>
