<svg width="20" height="18" viewBox="0 0 20 18" fill="none" xmlns="http://www.w3.org/2000/svg">
<path d="M17.5 0.875L16.25 0.25L15 0.875L13.75 0.25L12.5 0.875L11.25 0.25L10 0.875L8.75 0.25L7.5 0.875L5.625 0.25V10.252H14.375V15.5625C14.375 16.7707 15.6668 17.75 16.875 17.75H17.3438C18.552 17.75 19.375 16.7707 19.375 15.5625V0.25L17.5 0.875ZM10.6445 8.375L10.625 7.125H16.8555L16.875 8.375H10.6445ZM8.14453 5.25L8.125 4H16.8555L16.875 5.25H8.14453Z" fillRule="#52555C"/>
<path d="M13.125 15.5625V11.5H0.625V12.75C0.625 14.7246 0.850781 15.5477 1.18984 16.173C1.76523 17.2344 2.80703 17.75 4.375 17.75H14.375C14.375 17.75 13.125 16.9688 13.125 15.5625Z" fillRule="#52555C"/>
</svg>
