<svg width="18" height="20" viewBox="0 0 18 20" fill="none" xmlns="http://www.w3.org/2000/svg">
<path d="M11.5 6.875V0.625H0.25V19.375H5.25V15.625H6.5V19.375H17.75V6.875H11.5ZM3.375 16.875H2.125V15.625H3.375V16.875ZM3.375 13.75H2.125V12.5H3.375V13.75ZM3.375 10.625H2.125V9.375H3.375V10.625ZM3.375 7.5H2.125V6.25H3.375V7.5ZM3.375 4.375H2.125V3.125H3.375V4.375ZM8.375 3.125H9.625V4.375H8.375V3.125ZM6.5 13.75H5.25V12.5H6.5V13.75ZM6.5 10.625H5.25V9.375H6.5V10.625ZM6.5 7.5H5.25V6.25H6.5V7.5ZM6.5 4.375H5.25V3.125H6.5V4.375ZM9.625 16.875H8.375V15.625H9.625V16.875ZM9.625 13.75H8.375V12.5H9.625V13.75ZM9.625 10.625H8.375V9.375H9.625V10.625ZM9.625 7.5H8.375V6.25H9.625V7.5ZM16.5 18.125H11.5V16.875H12.75V15.625H11.5V13.75H12.75V12.5H11.5V10.625H12.75V9.375H11.5V8.125H16.5V18.125Z" fill="#52555C"/>
<path d="M15.25 15.625H14V16.875H15.25V15.625Z" fill="#52555C"/>
<path d="M15.25 12.5H14V13.75H15.25V12.5Z" fill="#52555C"/>
<path d="M15.25 9.375H14V10.625H15.25V9.375Z" fill="#52555C"/>
</svg>
