<svg width="18" height="18" viewBox="0 0 18 18" fill="none" xmlns="http://www.w3.org/2000/svg">
<path d="M9 9C9.86529 9 10.7112 8.74341 11.4306 8.26268C12.1501 7.78195 12.7108 7.09867 13.042 6.29924C13.3731 5.49982 13.4597 4.62015 13.2909 3.77148C13.1221 2.92282 12.7054 2.14326 12.0936 1.53141C11.4817 0.919555 10.7022 0.502877 9.85352 0.334066C9.00485 0.165256 8.12519 0.251896 7.32576 0.583029C6.52633 0.914162 5.84305 1.47492 5.36232 2.19438C4.88159 2.91385 4.625 3.75971 4.625 4.625C4.625 5.78532 5.08594 6.89812 5.90641 7.71859C6.72688 8.53907 7.83968 9 9 9ZM9 10.25C6.28828 10.25 0.875 11.925 0.875 15.25V17.75H17.125V15.25C17.125 11.925 11.7117 10.25 9 10.25Z" fill="#52555C"/>
</svg>
